HIERARCHY
ROOT root
{
	OFFSET	0	13.1	24.9
	CHANNELS 6  Xposition Yposition Zposition Xrotation Yrotation Zrotation
	JOINT spine_1
	{
		OFFSET	0	9.99999	0
		CHANNELS 3  Xrotation Yrotation Zrotation
		JOINT spine_2
		{
			OFFSET	0	112	-10
			CHANNELS 3  Xrotation Yrotation Zrotation
			JOINT spine_3
			{
				OFFSET	0	206.5	19.3
				CHANNELS 3  Xrotation Yrotation Zrotation
				JOINT spine_4
				{
					OFFSET	0	110.4	14.6
					CHANNELS 3  Xrotation Yrotation Zrotation
					JOINT neck_1
					{
						OFFSET	0	71.8	-50.3
						CHANNELS 3  Xrotation Yrotation Zrotation
						JOINT neck_2
						{
							OFFSET	0	86.2	-25.8
							CHANNELS 3  Xrotation Yrotation Zrotation
							JOINT head_ee
							{
								OFFSET	0	179.8	-8.7
								CHANNELS 3  Xrotation Yrotation Zrotation
								End Site
								{
									OFFSET	1	0	0
								}
							}
						}
					}
					JOINT left_clavicle
					{
						OFFSET	-43.2	22.4	-70.8
						CHANNELS 3  Xrotation Yrotation Zrotation
						JOINT left_shoulder
						{
							OFFSET	-93.9	-5.79999	48.7
							CHANNELS 3  Xrotation Yrotation Zrotation
							JOINT left_elbow
							{
								OFFSET	-291.4	-30.8	15.2
								CHANNELS 3  Xrotation Yrotation Zrotation
								JOINT left_lowarm_twist
								{
									OFFSET	-110.7	-3.89999	13.6
									CHANNELS 3  Xrotation Yrotation Zrotation
									JOINT left_hand
									{
										OFFSET	-110.7	-3.89999	13.6
										CHANNELS 3  Xrotation Yrotation Zrotation
										JOINT left_ee
										{
											OFFSET	-80.8	-5.10001	12.1
											CHANNELS 3  Xrotation Yrotation Zrotation
											End Site
											{
												OFFSET	1	0	0
											}
										}
									}
								}
							}
						}
					}
					JOINT right_clavicle
					{
						OFFSET	43.2	22.4	-70.8
						CHANNELS 3  Xrotation Yrotation Zrotation
						JOINT right_shoulder
						{
							OFFSET	93.9	-5.79999	48.7
							CHANNELS 3  Xrotation Yrotation Zrotation
							JOINT right_elbow
							{
								OFFSET	291.4	-30.8	15.2
								CHANNELS 3  Xrotation Yrotation Zrotation
								JOINT right_lowarm_twist
								{
									OFFSET	110.7	-3.89999	13.6
									CHANNELS 3  Xrotation Yrotation Zrotation
									JOINT right_hand
									{
										OFFSET	110.7	-3.89999	13.6
										CHANNELS 3  Xrotation Yrotation Zrotation
										JOINT right_ee
										{
											OFFSET	80.8	-5.10001	12.1
											CHANNELS 3  Xrotation Yrotation Zrotation
											End Site
											{
												OFFSET	1	0	0
											}
										}
									}
								}
							}
						}
					}
				}
			}
		}
	}
	JOINT left_hip
	{
		OFFSET	-82.8	-127.5	0.300001
		CHANNELS 3  Xrotation Yrotation Zrotation
		JOINT left_knee
		{
			OFFSET	-28.2	-396.7	2.2
			CHANNELS 3  Xrotation Yrotation Zrotation
			JOINT left_ankle
			{
				OFFSET	-11.7	-411.3	35.4
				CHANNELS 3  Xrotation Yrotation Zrotation
				JOINT left_toes
				{
					OFFSET	0	-60	-88.6
					CHANNELS 3  Xrotation Yrotation Zrotation
					JOINT left_foot_ee
					{
						OFFSET	-22.5	-16.5	-42.2
						CHANNELS 3  Xrotation Yrotation Zrotation
						End Site
						{
							OFFSET	1	0	0
						}
					}
				}
			}
		}
	}
	JOINT right_hip
	{
		OFFSET	82.8	-127.5	0.300001
		CHANNELS 3  Xrotation Yrotation Zrotation
		JOINT right_knee
		{
			OFFSET	28.2	-396.7	2.2
			CHANNELS 3  Xrotation Yrotation Zrotation
			JOINT right_ankle
			{
				OFFSET	11.7	-411.3	35.4
				CHANNELS 3  Xrotation Yrotation Zrotation
				JOINT right_toes
				{
					OFFSET	0	-60	-88.6
					CHANNELS 3  Xrotation Yrotation Zrotation
					JOINT right_foot_ee
					{
						OFFSET	22.5	-16.5	-42.2
						CHANNELS 3  Xrotation Yrotation Zrotation
						End Site
						{
							OFFSET	1	0	0
						}
					}
				}
			}
		}
	}
}
MOTION
Frames: 11
Frame Time: 0.02
1412.08 707.347 -1466.14 -2.62733 77.1396 -1.67389 0.168074 0.361825 2.37558 0.171189 0.209971 2.39378 0.181468 -0.290387 2.38537 0.173538 0.0898689 2.40128 -3.59198 5.71311 -8.32584 -3.22455 16.8222 -7.80327 -0.0 0.0 -0.0 1.42249 16.2128 4.13748 7.38661 -37.4464 50.3549 3.04972 -56.4866 1.63849 -59.866 -5.2661 5.09699 -2.62127 6.70844 -14.4451 -0.0 0.0 -0.0 5.13248 9.37541 -9.50026 -33.5745 34.5237 -65.7719 0.857311 23.0101 -0.174503 -17.885 0.961035 -2.06589 3.08533 -13.6601 -25.9063 0.0 0.0 0.0 -11.4801 -10.42 11.713 -14.2364 0.319762 2.15575 35.8826 18.9281 -4.609 -13.0442 0.0 0.0 -0.0 0.0 -0.0 30.2151 19.0846 -3.41211 3.60615 0.165211 0.528559 -6.24329 -17.0301 -0.935498 -10.9237 0.0 0.0 0.0 0.0 0.0 
1397.13 700.118 -1474.9 -1.57649 77.7505 -3.69166 0.0999364 0.396575 2.54169 0.1035 0.234092 2.56176 0.115768 -0.30452 2.55435 0.106677 0.102576 2.57038 -3.51405 5.661 -8.53727 -3.13039 16.8943 -8.04728 -0.0 0.0 -0.0 1.18182 16.387 3.77381 6.09619 -37.6613 50.5822 3.0655 -56.6225 1.65166 -60.108 -5.29619 5.10453 -2.58507 6.66335 -14.2239 -0.0 0.0 -0.0 5.20525 9.18445 -9.66274 -33.0086 34.4514 -65.8258 0.881307 23.5846 -0.183994 -17.7251 0.949646 -2.04888 3.16284 -13.749 -26.4823 0.0 0.0 0.0 -11.7483 -10.8101 11.7809 -14.8775 0.321475 2.2541 36.2952 18.1085 -4.63484 -13.0257 0.0 0.0 -0.0 0.0 -0.0 29.8497 18.7622 -3.24352 2.77847 0.124349 0.408161 -5.28618 -17.2385 -0.791222 -10.6764 0.0 0.0 0.0 0.0 0.0 
1375.61 696.571 -1482.52 -1.86193 78.3572 -3.58146 0.0211949 0.479036 2.60246 0.0249086 0.312523 2.62764 0.0412992 -0.244887 2.6348 0.0316537 0.174155 2.64042 -3.10828 5.90118 -7.96527 -2.74095 16.9078 -7.48114 -0.0 0.0 -0.0 0.158168 17.0301 2.24187 5.10764 -38.5852 50.8654 3.06521 -56.62 1.65141 -60.2559 -5.3146 5.10908 -2.55414 6.6242 -14.0353 -0.0 0.0 -0.0 5.52843 9.08185 -10.3413 -31.9726 34.5862 -66.0902 0.900566 24.042 -0.19177 -17.6765 0.946192 -2.0437 3.21507 -13.8135 -26.8732 0.0 0.0 0.0 -12.0656 -11.1948 11.494 -15.3724 0.322044 2.33002 36.5884 17.5183 -4.65326 -12.8635 0.0 0.0 -0.0 0.0 -0.0 29.4355 18.5967 -1.78573 0.157361 0.00651181 0.0232703 -5.65241 -17.2332 -0.846563 -10.7016 0.0 0.0 0.0 0.0 0.0 
1355.48 696.782 -1486.69 -2.00537 80.3493 -4.22872 0.0109046 0.519458 2.87804 0.0154499 0.335347 2.90523 0.0349669 -0.281071 2.91097 0.0231891 0.181989 2.91884 -2.72473 6.06117 -7.5726 -2.364 16.9065 -7.1103 -0.0 0.0 -0.0 -0.570403 17.5463 1.1804 3.78915 -39.3633 51.4356 3.03898 -56.3936 1.62954 -60.3829 -5.33041 5.11294 -2.52084 6.57241 -13.8373 -0.0 0.0 -0.0 5.75296 8.96616 -10.8153 -31.2432 34.671 -66.2088 0.913983 24.3588 -0.19727 -17.6351 0.943253 -2.03929 3.25031 -13.853 -27.1364 0.0 0.0 0.0 -12.5349 -11.4906 11.3566 -15.9624 0.321865 2.42055 36.7898 17.1032 -4.66585 -12.7499 0.0 0.0 -0.0 0.0 -0.0 29.1704 18.4928 -1.05275 -2.10421 -0.0809021 -0.312772 -5.9852 -17.1857 -0.896801 -10.7415 0.0 0.0 0.0 0.0 0.0 
1333.56 697.495 -1492.92 4.56133 81.7672 -11.0892 -0.0422418 0.53439 3.06052 -0.0370948 0.338653 3.08829 -0.0159499 -0.318998 3.09038 -0.0292346 0.172831 3.10198 -2.14971 6.12472 -7.26148 -1.78623 16.794 -6.86981 -0.0 0.0 -0.0 -1.16941 18.2358 0.360522 1.24841 -39.9946 51.7143 2.95975 -55.6931 1.56383 -60.5382 -5.34976 5.11762 -2.44821 6.43967 -13.4154 -0.0 0.0 -0.0 5.97376 8.6409 -11.2915 -30.6283 34.749 -66.5033 0.893398 23.8721 -0.18886 -17.7271 0.949791 -2.0491 3.272 -13.8833 -27.3005 0.0 0.0 0.0 -12.8247 -11.5843 11.3454 -18.3474 0.311646 2.7863 36.8044 16.8255 -4.66266 -12.6704 0.0 0.0 -0.0 0.0 -0.0 28.4248 18.3322 -0.574173 -3.79861 -0.137656 -0.566611 -6.52268 -17.1247 -0.978053 -10.8681 0.0 0.0 0.0 0.0 0.0 
1309.2 707.318 -1498.33 3.90307 82.2607 -10.4409 0.0125525 0.545595 3.13889 0.0179673 0.344856 3.16721 0.0399839 -0.32646 3.16915 0.0260139 0.177884 3.18094 -1.78648 5.89189 -7.5448 -1.39931 16.6082 -7.26317 -0.0 0.0 -0.0 -1.61623 19.0873 -0.184075 -1.99766 -40.3354 51.6472 2.73187 -53.5281 1.37801 -60.6419 -5.36269 5.12072 -2.25105 5.83983 -12.3885 -0.0 0.0 -0.0 6.1938 8.49075 -11.7572 -29.1767 35.1446 -66.2565 0.887549 23.7332 -0.186499 -17.8416 0.957943 -2.06128 3.25612 -13.8942 -27.1901 0.0 0.0 0.0 -11.9999 -11.446 11.0126 -20.1718 0.293556 3.06565 36.8881 16.7459 -4.66949 -12.3723 0.0 0.0 -0.0 0.0 -0.0 26.4985 18.2014 0.200607 -5.18274 -0.178426 -0.775115 -6.65057 -16.9731 -0.997047 -10.4013 0.0 0.0 0.0 0.0 0.0 
1286.63 706.966 -1502.43 8.66392 82.8767 -15.3926 0.0440296 0.482064 3.20474 0.0497002 0.27727 3.22888 0.068242 -0.404004 3.2155 0.0538312 0.108619 3.23893 -1.52705 5.77916 -7.65325 -1.12738 16.4993 -7.43715 -0.0 0.0 -0.0 -2.00195 19.6496 -0.666805 -4.29903 -41.2077 51.6058 2.61884 -52.3649 1.28781 -60.7156 -5.37188 5.1229 -1.99905 5.18555 -11.0172 -0.0 0.0 -0.0 6.34924 8.28929 -12.0902 -28.7032 35.3677 -66.1571 0.876364 23.4666 -0.182021 -17.9724 0.967283 -2.07518 3.27125 -13.8154 -27.2752 0.0 0.0 0.0 -11.5081 -11.2405 10.4221 -22.371 0.259943 3.4014 36.8732 16.6162 -4.66594 -12.1707 0.0 0.0 -0.0 0.0 -0.0 24.0064 18.0323 0.784016 -6.49715 -0.212465 -0.973953 -5.38493 -16.3219 -0.804287 -10.0707 0.0 0.0 0.0 0.0 0.0 
1269.66 705.643 -1506.15 11.9962 83.7683 -18.9804 0.0625798 0.449672 3.26667 0.0684837 0.241009 3.28863 0.0852518 -0.451063 3.26648 0.0703706 0.0701869 3.2967 -1.33994 5.70114 -7.72584 -0.931566 16.4229 -7.55616 -0.0 0.0 -0.0 -2.41772 20.1803 -1.18774 -6.50404 -41.7788 51.5667 2.52676 -51.3695 1.21537 -60.7671 -5.37831 5.12442 -1.80954 4.69326 -9.98393 -0.0 0.0 -0.0 6.4522 8.14312 -12.3109 -28.3602 35.5131 -66.0429 0.868453 23.2774 -0.178883 -18.0641 0.97385 -2.08491 3.2796 -13.7611 -27.3192 0.0 0.0 0.0 -11.0152 -11.0151 10.1655 -23.929 0.228343 3.63838 36.8529 16.502 -4.66215 -12.0349 0.0 0.0 -0.0 0.0 -0.0 22.2142 17.9109 1.16783 -7.42 -0.233633 -1.11399 -4.466 -15.8375 -0.665194 -9.84313 0.0 0.0 0.0 0.0 0.0 
1246.89 724.655 -1510.48 31.6852 85.314 -38.8866 0.103086 0.196608 3.35795 0.109359 -0.0173424 3.36365 0.110937 -0.718351 3.28618 0.0959188 -0.190652 3.3583 -1.50053 5.81459 -7.20183 -1.1309 16.2045 -6.9518 -0.0 0.0 -0.0 -2.81512 20.6333 -1.6851 -11.2598 -43.2493 50.6867 2.21212 -47.6114 0.97602 -60.6243 -5.3605 5.12019 -1.54757 4.55918 -8.30045 -0.0 0.0 -0.0 6.53145 8.06626 -12.4793 -27.1488 35.6348 -65.5627 0.88845 23.7546 -0.186862 -17.8482 0.958412 -2.06198 3.06125 -13.629 -25.7269 0.0 0.0 0.0 -10.3578 -10.5726 10.0187 -25.1959 0.197899 3.83042 36.5144 13.4416 -4.58797 -12.7835 0.0 0.0 -0.0 0.0 -0.0 16.1614 17.3643 1.83506 -9.07368 -0.26591 -1.36569 0.449259 -14.3424 0.0660297 -9.08556 0.0 0.0 0.0 0.0 0.0 
1226.15 728.787 -1517.87 51.0877 85.439 -58.138 0.117644 0.0206894 3.42518 0.124148 -0.197176 3.41957 0.114739 -0.905986 3.30339 0.0997066 -0.373227 3.40487 -2.32279 5.39448 -8.23017 -1.92603 16.2331 -7.96477 -0.0 0.0 -0.0 -2.94202 19.7524 -2.04208 -14.3688 -44.3251 50.0417 1.9396 -43.8506 0.780769 -60.5206 -5.34757 5.11709 -1.02069 4.44896 -4.85963 -0.0 0.0 -0.0 6.55215 6.28555 -12.5844 -26.2158 35.7005 -65.0607 0.916578 24.4199 -0.198342 -17.709 0.948501 -2.04716 2.85359 -13.5087 -24.2342 0.0 0.0 0.0 -9.91127 -10.2618 9.84143 -25.9902 0.176648 3.95047 36.2868 11.6095 -4.54799 -13.367 0.0 0.0 -0.0 0.0 -0.0 12.0158 17.0881 2.03159 -9.89493 -0.279236 -1.491 4.98053 -11.1498 0.720299 -8.5593 0.0 0.0 0.0 0.0 0.0 
1200.86 712.443 -1525.75 43.5811 84.923 -50.6378 0.136064 0.370097 3.54195 0.14303 0.144109 3.5583 0.155091 -0.598135 3.51068 0.137897 -0.0365477 3.56102 -1.19068 5.5222 -7.53032 -0.79974 15.9506 -7.38983 -0.0 0.0 -0.0 -2.95979 18.727 -2.2685 -16.9883 -45.0481 48.8703 1.76727 -41.1969 0.664262 -60.8431 -5.38779 5.12665 -0.607989 4.34807 -2.18222 -0.0 0.0 -0.0 6.94888 4.45203 -13.4472 -24.4152 35.6124 -64.2531 0.944738 25.079 -0.210131 -16.9681 0.89637 -1.96792 2.51605 -13.3506 -21.8566 0.0 0.0 0.0 -12.462 -10.4415 9.46885 -30.3257 0.0314524 4.59984 40.6823 10.9284 -4.94365 -11.9006 0.0 0.0 -0.0 0.0 -0.0 10.4434 16.7832 1.22914 -9.0679 -0.26581 -1.36481 10.8346 -6.43584 1.53599 -8.00371 0.0 0.0 0.0 0.0 0.0 
